# xmcd
#
# Track frame offsets: 
#        150
#        13431
#        28557
#        41928
#        54453
#        65995
#        78442
#        93074
#        109012
#        117727
#        129850
#        139168
#
# Disc length: 2080 seconds
#
# Revision: 0
# Processed by: cddbd v1.5.1PL0 Copyright (c) Steve Scherf et al.
# Submitted via: ExactAudioCopy v0.95a5
#
DISCID=aa081e0c
DTITLE=Denny and Shelia Yeary - Have you ever been lonely
DYEAR=1900
DGENRE=Country
TTITLE0=Have You Ever Been Lonely
TTITLE1=You're The Reason God Made Oklahoma
TTITLE2=When Two Fools Collide
TTITLE3=Rocky Top
TTITLE4=Walkin' After Midnight
TTITLE5=Son Of A Preacher Man
TTITLE6=Unforgettable
TTITLE7=It's You're Love
TTITLE8=Blue Moon Of Kentucky
TTITLE9=Crazy (with Patsy and Willie)
TTITLE10=Back In Baby's Arms
TTITLE11=All The Way
EXTD=
EXTT0=
EXTT1=
EXTT2=
EXTT3=
EXTT4=
EXTT5=
EXTT6=
EXTT7=
EXTT8=
EXTT9=
EXTT10=
EXTT11=
PLAYORDER=
